<svg width="260" height="260" viewBox="0 0 260 260" fill="none" xmlns="http://www.w3.org/2000/svg">
<circle cx="130" cy="130" r="130" fill="#748C70"/>
<path fill-rule="evenodd" clip-rule="evenodd" d="M87.1205 252.771C88.0237 248.619 89.099 244.568 90.3586 240.626C75.3352 222.958 75.3184 205.795 75.3184 197.191L75.3184 197.18C75.3838 173.803 82.4259 152.247 100.443 136.618C118.361 121.074 146.514 111.941 187.652 111.941H223.889C226.098 111.941 227.889 113.732 227.889 115.941V133.997C227.889 134.073 227.887 134.15 227.883 134.226C225.593 174.123 214.605 202.296 196.423 220.485C178.202 238.713 153.344 246.33 124.584 246.33H97.3739C97.2458 246.33 97.1184 246.324 96.9919 246.312C96.1601 249.2 95.4258 252.158 94.7848 255.183C92.1965 254.456 89.6408 253.651 87.1205 252.771ZM109.856 218.03C105.686 224.286 102.294 231.063 99.6072 238.33H124.584C151.958 238.33 174.495 231.106 190.765 214.83C207.058 198.531 217.651 172.572 219.889 133.882V119.941H187.652C147.54 119.941 121.589 128.865 105.685 142.661C89.8802 156.371 83.3804 175.437 83.3184 197.197V197.222C83.3183 204.611 83.3183 217.698 93.5726 231.788C96.2022 225.382 99.391 219.305 103.2 213.592C113.816 197.668 129.106 184.786 150.042 175.481C152.061 174.583 154.425 175.493 155.322 177.511C156.219 179.53 155.31 181.894 153.291 182.791C133.603 191.542 119.552 203.486 109.856 218.03Z" fill="white"/>
</svg>
